<svg width="20" height="20" viewBox="0 0 20 20" fill="none" xmlns="http://www.w3.org/2000/svg">
<path fill-rule="evenodd" clip-rule="evenodd" d="M6.66667 5.00008C6.66667 3.15913 8.15905 1.66675 10 1.66675H14.1667C16.0076 1.66675 17.5 3.15913 17.5 5.00008V13.3763C17.5 14.7336 15.9643 15.5217 14.8615 14.7303L13.3333 13.6335V16.7096C13.3333 18.0669 11.7976 18.855 10.6949 18.0636L7.91667 16.0697L5.13846 18.0636C4.03573 18.855 2.5 18.0669 2.5 16.7096V8.33342C2.5 6.49247 3.99238 5.00008 5.83333 5.00008H6.66667ZM8.33333 5.00008C8.33333 4.07961 9.07953 3.33341 10 3.33341H14.1667C15.0871 3.33341 15.8333 4.07961 15.8333 5.00008V13.3763L13.3333 11.582V8.33342C13.3333 6.49247 11.8409 5.00008 10 5.00008H8.33333ZM5.83333 6.66675C4.91286 6.66675 4.16667 7.41294 4.16667 8.33342V16.7096L6.94487 14.7157C7.52568 14.2988 8.30765 14.2988 8.88846 14.7157L11.6667 16.7096V8.33342C11.6667 7.41294 10.9205 6.66675 10 6.66675H5.83333Z" fill="black"/>
</svg>
