<svg width="24" height="24" viewBox="0 0 24 24" fill="none" xmlns="http://www.w3.org/2000/svg">
<path d="M13.173 14.0063C13.1747 14.5586 12.7498 15.0077 12.2239 15.0095C11.6981 15.0112 11.2705 14.5649 11.2688 14.0126L13.173 14.0063Z" fill="black"/>
<path d="M10.0161 6.7238L11.2432 5.42688L11.2688 14.0126L13.173 14.0063L13.1474 5.42061L14.3822 6.70942C14.7552 7.09872 15.3581 7.09675 15.7287 6.705C16.0994 6.31326 16.0975 5.68009 15.7245 5.2908L12.1839 1.59534L8.66536 5.31403L10.0161 6.7238Z" fill="black"/>
<path d="M8.66536 5.31403C8.29471 5.70578 8.29658 6.33896 8.66957 6.72826C9.04256 7.11756 9.64542 7.11555 10.0161 6.7238L8.66536 5.31403Z" fill="black"/>
<path d="M4.57123 12.0002C4.57123 10.8956 5.42378 10.0002 6.47546 10.0002C7.0013 10.0002 7.42758 9.55244 7.42758 9.00016C7.42758 8.44788 7.0013 8.00016 6.47546 8.00016C4.3721 8.00016 2.66699 9.79102 2.66699 12.0002V18.0002C2.66699 20.2093 4.3721 22.0002 6.47546 22.0002H16.9488C19.578 22.0002 21.7093 19.7616 21.7093 17.0002V12.0002C21.7093 9.79102 20.0042 8.00016 17.9009 8.00016C17.375 8.00016 16.9488 8.44788 16.9488 9.00016C16.9488 9.55244 17.375 10.0002 17.9009 10.0002C18.9526 10.0002 19.8051 10.8956 19.8051 12.0002V17.0002C19.8051 18.657 18.5263 20.0002 16.9488 20.0002H6.47546C5.42378 20.0002 4.57123 19.1047 4.57123 18.0002V12.0002Z" fill="black"/>
</svg>
