<svg width="34" height="34" viewBox="0 0 34 34" fill="none" xmlns="http://www.w3.org/2000/svg">
<path fill-rule="evenodd" clip-rule="evenodd" d="M12.7574 19.8286C12.3668 20.2191 12.3668 20.8523 12.7574 21.2428C13.1479 21.6333 13.781 21.6333 14.1716 21.2428L17 18.4144L19.8284 21.2428C20.219 21.6333 20.8521 21.6333 21.2426 21.2428C21.6332 20.8523 21.6332 20.2191 21.2426 19.8286L18.4142 17.0002L21.2426 14.1717C21.6332 13.7812 21.6332 13.1481 21.2426 12.7575C20.8521 12.367 20.219 12.367 19.8284 12.7575L17 15.586L14.1716 12.7575C13.781 12.367 13.1479 12.367 12.7574 12.7575C12.3668 13.1481 12.3668 13.7812 12.7574 14.1717L15.5858 17.0002L12.7574 19.8286Z" fill="black"/>
</svg>
