<svg width="20" height="20" viewBox="0 0 20 20" fill="none" xmlns="http://www.w3.org/2000/svg">
<path fill-rule="evenodd" clip-rule="evenodd" d="M4.16663 1.6665C2.78591 1.6665 1.66663 2.78579 1.66663 4.1665V6.6665C1.66663 8.04722 2.78591 9.1665 4.16663 9.1665H6.66663C8.04734 9.1665 9.16663 8.04722 9.16663 6.6665V4.1665C9.16663 2.78579 8.04734 1.6665 6.66663 1.6665H4.16663ZM3.33329 4.1665C3.33329 3.70627 3.70639 3.33317 4.16663 3.33317H6.66663C7.12686 3.33317 7.49996 3.70627 7.49996 4.1665V6.6665C7.49996 7.12674 7.12686 7.49984 6.66663 7.49984H4.16663C3.70639 7.49984 3.33329 7.12674 3.33329 6.6665V4.1665Z" fill="black"/>
<path fill-rule="evenodd" clip-rule="evenodd" d="M13.3333 1.6665C11.9526 1.6665 10.8333 2.78579 10.8333 4.1665V6.6665C10.8333 8.04722 11.9526 9.1665 13.3333 9.1665H15.8333C17.214 9.1665 18.3333 8.04722 18.3333 6.6665V4.1665C18.3333 2.78579 17.214 1.6665 15.8333 1.6665H13.3333ZM12.5 4.1665C12.5 3.70627 12.8731 3.33317 13.3333 3.33317H15.8333C16.2935 3.33317 16.6666 3.70627 16.6666 4.1665V6.6665C16.6666 7.12674 16.2935 7.49984 15.8333 7.49984H13.3333C12.8731 7.49984 12.5 7.12674 12.5 6.6665V4.1665Z" fill="black"/>
<path fill-rule="evenodd" clip-rule="evenodd" d="M1.66663 13.3332C1.66663 11.9525 2.78591 10.8332 4.16663 10.8332H6.66663C8.04734 10.8332 9.16663 11.9525 9.16663 13.3332V15.8332C9.16663 17.2139 8.04734 18.3332 6.66663 18.3332H4.16663C2.78591 18.3332 1.66663 17.2139 1.66663 15.8332V13.3332ZM4.16663 12.4998C3.70639 12.4998 3.33329 12.8729 3.33329 13.3332V15.8332C3.33329 16.2934 3.70639 16.6665 4.16663 16.6665H6.66663C7.12686 16.6665 7.49996 16.2934 7.49996 15.8332V13.3332C7.49996 12.8729 7.12686 12.4998 6.66663 12.4998H4.16663Z" fill="black"/>
<path fill-rule="evenodd" clip-rule="evenodd" d="M13.3333 10.8332C11.9526 10.8332 10.8333 11.9525 10.8333 13.3332V15.8332C10.8333 17.2139 11.9526 18.3332 13.3333 18.3332H15.8333C17.214 18.3332 18.3333 17.2139 18.3333 15.8332V13.3332C18.3333 11.9525 17.214 10.8332 15.8333 10.8332H13.3333ZM12.5 13.3332C12.5 12.8729 12.8731 12.4998 13.3333 12.4998H15.8333C16.2935 12.4998 16.6666 12.8729 16.6666 13.3332V15.8332C16.6666 16.2934 16.2935 16.6665 15.8333 16.6665H13.3333C12.8731 16.6665 12.5 16.2934 12.5 15.8332V13.3332Z" fill="black"/>
</svg>
