<svg width="20" height="19" viewBox="0 0 20 19" fill="none" xmlns="http://www.w3.org/2000/svg">
<path fill-rule="evenodd" clip-rule="evenodd" d="M1.65381 7.12492C1.65381 5.37602 3.13459 3.95825 4.96122 3.95825H10.7492C12.5758 3.95825 14.0566 5.37602 14.0566 7.12492V7.18169L16.7041 5.72453C17.3656 5.36046 18.1908 5.81762 18.1908 6.54814V12.4677C18.1908 13.1577 17.4469 13.6175 16.7902 13.3335L14.0446 12.146C13.901 13.768 12.4804 15.0416 10.7492 15.0416H4.96122C3.13459 15.0416 1.65381 13.6238 1.65381 11.8749V7.12492ZM14.0566 10.4138L16.5371 11.4867V7.64273L14.0566 9.00798V10.4138ZM12.4029 7.12492C12.4029 6.25047 11.6625 5.54159 10.7492 5.54159H4.96122C4.0479 5.54159 3.30751 6.25047 3.30751 7.12492V11.8749C3.30751 12.7494 4.0479 13.4583 4.96122 13.4583H10.7492C11.6625 13.4583 12.4029 12.7494 12.4029 11.8749V7.12492Z" fill="black"/>
</svg>
