<svg width="22" height="20" viewBox="0 0 22 20" fill="none" xmlns="http://www.w3.org/2000/svg">
<path d="M6.6259 5.83333C6.14521 5.83333 5.75553 6.20643 5.75553 6.66667C5.75553 7.1269 6.14521 7.5 6.6259 7.5H11.8481C12.3288 7.5 12.7185 7.1269 12.7185 6.66667C12.7185 6.20643 12.3288 5.83333 11.8481 5.83333H6.6259Z" fill="black"/>
<path d="M5.75553 10C5.75553 9.53976 6.14521 9.16667 6.6259 9.16667H11.8481C12.3288 9.16667 12.7185 9.53976 12.7185 10C12.7185 10.4602 12.3288 10.8333 11.8481 10.8333H6.6259C6.14521 10.8333 5.75553 10.4602 5.75553 10Z" fill="black"/>
<path d="M6.6259 12.5C6.14521 12.5 5.75553 12.8731 5.75553 13.3333C5.75553 13.7936 6.14521 14.1667 6.6259 14.1667H11.8481C12.3288 14.1667 12.7185 13.7936 12.7185 13.3333C12.7185 12.8731 12.3288 12.5 11.8481 12.5H6.6259Z" fill="black"/>
<path fill-rule="evenodd" clip-rule="evenodd" d="M5.42914 17.5H16.5264C18.2817 17.5 19.6814 16.1196 19.6814 14.4444V5.55556C19.6814 3.88044 18.2817 2.5 16.5264 2.5H5.42914C3.67376 2.5 2.27405 3.88044 2.27405 5.55556V14.4444C2.27405 16.1196 3.67376 17.5 5.42914 17.5ZM5.42914 4.16667C4.66089 4.16667 4.01479 4.77607 4.01479 5.55556V14.4444C4.01479 15.2239 4.66089 15.8333 5.42914 15.8333H13.0449C13.8131 15.8333 14.4592 15.2239 14.4592 14.4444V5.55556C14.4592 4.77607 13.8131 4.16667 13.0449 4.16667H5.42914ZM16.5264 15.8333H15.8555C16.076 15.4156 16.2 14.9431 16.2 14.4444V5.55556C16.2 5.05694 16.076 4.58443 15.8555 4.16667H16.5264C17.2946 4.16667 17.9407 4.77607 17.9407 5.55556V14.4444C17.9407 15.2239 17.2946 15.8333 16.5264 15.8333Z" fill="black"/>
</svg>
