<svg width="26" height="27" viewBox="0 0 26 27" fill="none" xmlns="http://www.w3.org/2000/svg">
<path fill-rule="evenodd" clip-rule="evenodd" d="M19.8498 9.37743C19.9839 8.82966 19.5219 8.33053 19.023 8.48432L7.70236 11.9743C7.11022 12.1568 7.03895 13.0438 7.5929 13.3366L11.7931 15.5566C12.2294 15.7872 12.5923 16.1561 12.8346 16.6153L15.6087 21.8725C15.9064 22.4367 16.6789 22.3254 16.833 21.6962L19.8498 9.37743ZM18.549 6.64349C20.3526 6.08747 22.0232 7.89201 21.5382 9.87242L18.5214 22.1911C17.9643 24.4662 15.1713 24.8685 14.0949 22.8288L11.3208 17.5715C11.2538 17.4445 11.1534 17.3425 11.0327 17.2787L6.83257 15.0586C4.82985 14.0001 5.08752 10.7934 7.22833 10.1334L18.549 6.64349Z" fill="black"/>
<path fill-rule="evenodd" clip-rule="evenodd" d="M11.5421 17.9131C11.1926 17.5488 11.1792 16.9436 11.5121 16.5612L19.5602 7.31757L20.8258 8.63672L12.7777 17.8803C12.4448 18.2627 11.8916 18.2774 11.5421 17.9131Z" fill="black"/>
</svg>
