<svg width="24" height="24" viewBox="0 0 24 24" fill="none" xmlns="http://www.w3.org/2000/svg">
<path fill-rule="evenodd" clip-rule="evenodd" d="M22 10.76V17.5965C22 19.4375 20.5076 20.9299 18.6667 20.9299H17.4444C16.8922 20.9299 16.4444 20.4821 16.4444 19.9299V19.7076C16.4444 19.1554 16.8922 18.7076 17.4444 18.7076H18.6667C19.2803 18.7076 19.7778 18.2102 19.7778 17.5965V10.76C19.7778 10.4139 19.6165 10.0876 19.3416 9.87737L12.6749 4.77933C12.2765 4.47467 11.7235 4.47467 11.3251 4.77933L4.65839 9.87737C4.38348 10.0876 4.22222 10.4139 4.22222 10.76V17.5965C4.22222 18.2102 4.71968 18.7076 5.33333 18.7076H6.55556C7.10784 18.7076 7.55556 19.1554 7.55556 19.7076V19.9299C7.55556 20.4821 7.10784 20.9299 6.55556 20.9299H5.33333C3.49239 20.9299 2 19.4375 2 17.5965V10.76C2 9.72175 2.48377 8.7428 3.3085 8.11213L9.97517 3.01409C11.1704 2.10012 12.8297 2.10013 14.0248 3.01409L20.6915 8.11213C21.5162 8.7428 22 9.72175 22 10.76ZM11.8889 11.1521H12.1111C13.768 11.1521 15.1111 12.4952 15.1111 14.1521V17.7077C15.1111 19.3645 13.768 20.7077 12.1111 20.7077H11.8889C10.232 20.7077 8.88889 19.3645 8.88889 17.7077V14.1521C8.88889 12.4952 10.232 11.1521 11.8889 11.1521ZM13.1111 14.1521C13.1111 13.5998 12.6634 13.1521 12.1111 13.1521H11.8889C11.3366 13.1521 10.8889 13.5998 10.8889 14.1521V17.7077C10.8889 18.2599 11.3366 18.7077 11.8889 18.7077H12.1111C12.6634 18.7077 13.1111 18.2599 13.1111 17.7077V14.1521Z" fill="black"/>
</svg>
