<svg width="20" height="20" viewBox="0 0 20 20" fill="none" xmlns="http://www.w3.org/2000/svg">
<path d="M5.83342 5.83341C5.37318 5.83341 5.00008 6.20651 5.00008 6.66675C5.00008 7.12699 5.37318 7.50008 5.83342 7.50008H10.8334C11.2937 7.50008 11.6667 7.12699 11.6667 6.66675C11.6667 6.20651 11.2937 5.83341 10.8334 5.83341H5.83342Z" fill="black"/>
<path d="M5.00008 10.0001C5.00008 9.53984 5.37318 9.16675 5.83342 9.16675H10.8334C11.2937 9.16675 11.6667 9.53984 11.6667 10.0001C11.6667 10.4603 11.2937 10.8334 10.8334 10.8334H5.83342C5.37318 10.8334 5.00008 10.4603 5.00008 10.0001Z" fill="black"/>
<path d="M5.83342 12.5001C5.37318 12.5001 5.00008 12.8732 5.00008 13.3334C5.00008 13.7937 5.37318 14.1667 5.83342 14.1667H10.8334C11.2937 14.1667 11.6667 13.7937 11.6667 13.3334C11.6667 12.8732 11.2937 12.5001 10.8334 12.5001H5.83342Z" fill="black"/>
<path fill-rule="evenodd" clip-rule="evenodd" d="M4.68758 2.50008H5.86149C6.4252 1.97621 7.20616 1.66675 8.02089 1.66675H15.3126C16.8859 1.66675 18.3334 2.82084 18.3334 4.44453V12.2223C18.3334 13.846 16.8859 15.0001 15.3126 15.0001H14.9501C14.6925 16.4143 13.4698 17.5001 11.9792 17.5001H4.68758C3.0069 17.5001 1.66675 16.1196 1.66675 14.4445V5.55564C1.66675 3.88052 3.0069 2.50008 4.68758 2.50008ZM15.3126 13.3334H15.0001V5.55564C15.0001 4.68419 14.6374 3.89249 14.0527 3.33341H15.3126C16.1554 3.33341 16.6667 3.92044 16.6667 4.44453V12.2223C16.6667 12.7464 16.1554 13.3334 15.3126 13.3334ZM4.68758 4.16675C3.95202 4.16675 3.33341 4.77615 3.33341 5.55564V14.4445C3.33341 15.224 3.95202 15.8334 4.68758 15.8334H11.9792C12.7148 15.8334 13.3334 15.224 13.3334 14.4445V5.55564C13.3334 4.77615 12.7148 4.16675 11.9792 4.16675H4.68758Z" fill="black"/>
</svg>
